<svg xmlns="http://www.w3.org/2000/svg" viewBox="0 0 222.9 222.9" fill="black">
  
  <defs>
    
  </defs>
  <g>
    <path d="M97.8,83.7c3.5,1,6.2.7,7.4-.1.3-.2.8-.6,1-2,0-.4-.5-1.6-6.7-3.4-6.2-1.8-7.3-1.2-7.5-.8-.7,1.3-.4,1.9-.3,2.2.6,1.3,2.7,3.1,6.2,4.2Z"/>
    <path d="M97.7,120.6c-.7-.2-1.4-.2-2.2-.1-1.3.1-2.8.6-4.7,1.2-.9.3-1.9.6-2.9.9.8.7,1.4,1.5,1.8,2.7,2.1,7-4.5,10.9-11.3,11.6-6.8.6-14.1-1.9-13.3-9.2.2-1.6.9-2.8,1.9-3.7-2-.2-3.5-.4-4.8-.3-.8,0-1.4.2-2.1.6-4.1,1.8-5.1,9.4-3.4,15.3,1.4,5,4.8,9.3,9.2,11.6,3.2,1.7,9.2,2.3,16,1.6,6.8-.7,12.6-2.4,15.4-4.7,3.9-3.1,6.4-8,6.8-13.1.5-6.1-1.9-13.4-6.3-14.4Z"/>
    <path d="M77.9,131.9c3.6-.4,6-1.7,6.8-2.9.2-.3.6-.8.1-2.2-.1-.4-1.1-1.2-7.5-.6-6.4.6-7.2,1.6-7.3,2.1-.1,1.4.3,1.9.6,2.1,1,1,3.6,1.9,7.3,1.5Z"/>
    <path d="M120.5,80.7c-.6-.4-1.3-.7-2-1-1.3-.4-2.9-.5-4.9-.6-.9,0-1.9-.1-3-.2.5.9.8,2,.6,3.2-.7,7.3-8.3,8.4-14.9,6.5-6.6-2-12.3-7-8.9-13.6.7-1.4,1.9-2.3,3.2-2.7-1.7-1-3.1-1.7-4.4-2.1-.7-.2-1.4-.3-2.2-.3-4.5.1-8.2,6.8-8.9,12.9-.6,5.1,1,10.4,4.2,14.2,2.3,2.8,7.7,5.6,14.3,7.5,6.6,2,12.6,2.5,16.1,1.5,4.8-1.4,9-5,11.2-9.6,2.7-5.5,3.2-13.1-.4-15.7Z"/>
    <path d="M108.9,135.3c-.5,6.8-4,12.9-8.7,16.6-5.1,4.1-14.3,5.4-18,5.7-3.7.4-13,.9-18.8-2.2-5.3-2.7-9.8-8-11.7-14.6-2.1-7.5-.9-18,6.2-21.1,1.3-.6,2.4-.8,3.6-1,4.4-.4,9,1.5,17,.7,8-.8,12.1-3.5,16.5-3.9,1.2-.1,2.4,0,3.8.2,7.5,1.7,10.7,11.8,10.1,19.6ZM111.1,110.7c-6.3,1.9-15.3-.4-18.9-1.5-3.6-1.1-12.3-4-16.6-9.1-3.8-4.5-6.1-11.1-5.3-17.9.9-7.8,5.9-17,13.7-17.3,1.4,0,2.6.1,3.7.5,4.3,1.3,7.7,4.7,15.5,7,7.7,2.3,12.5,1.3,16.8,2.6,1.2.3,2.3.9,3.4,1.6,6.3,4.4,5.5,14.9,2,21.9-3.1,6.1-8.6,10.4-14.2,12.1ZM170.3,139.2c-2.5,6.4-7.6,11.2-13.1,13.4-6.1,2.5-15.3,1-18.9.3-3.6-.7-12.7-2.9-17.4-7.5-4.2-4.1-7.1-10.5-7-17.4.2-7.8,4.3-17.5,12-18.5,1.4-.2,2.6,0,3.8.1,4.4.9,8.2,4,16,5.5,7.9,1.6,12.6.1,16.9,1,1.2.2,2.3.6,3.5,1.3,6.7,3.8,6.9,14.4,4,21.6Z"/>
    <path d="M163.8,121.8c-.7-.4-1.3-.6-2.1-.8-1.3-.3-2.9-.2-4.9-.2-.9,0-2,0-3,0,.6.9.9,1.9.9,3.1,0,7.3-7.5,9.2-14.2,7.8-6.7-1.4-12.9-5.9-10.1-12.7.6-1.5,1.6-2.4,2.9-3-1.8-.8-3.2-1.4-4.6-1.7-.7-.1-1.4-.2-2.2,0-4.4.6-7.5,7.5-7.7,13.7-.1,5.1,1.9,10.3,5.5,13.7,2.6,2.5,8.2,4.8,14.9,6.2,6.7,1.3,12.8,1.3,16.1,0,4.6-1.8,8.5-5.8,10.3-10.6,2.2-5.7,2-13.4-1.9-15.6Z"/>
    <path d="M141.6,126.9c3.5.7,6.2,0,7.3-.8.3-.2.8-.6.8-2.1,0-.4-.7-1.5-7-2.8-6.3-1.3-7.4-.5-7.5-.1-.5,1.3-.2,1.9,0,2.2.7,1.3,2.9,2.8,6.5,3.6Z"/>
  </g>
  
</svg>
