<svg xmlns="http://www.w3.org/2000/svg" viewBox="0 0 222.9 222.9" fill="black">

<g>
	<g>
		<path d="M104.8,97.5h2.3v-8.7c-0.8,0-1.7,0-2.6,0.1C104.8,91.6,104.9,94.5,104.8,97.5z"/>
		<path d="M102.6,115.2h4.6v-9.3h-3C103.8,109.1,103.2,112.2,102.6,115.2z"/>
		<path d="M99.8,126.6c-1,3.8-1.9,7.4-2.6,10.8c2.9,0.2,6.2,0.3,10,0.3v-14.2h-6.6C100.3,124.6,100.1,125.6,99.8,126.6z
			"/>
		<path d="M102.1,72.7c0.4,2.4,0.9,5,1.4,7.8c1.3-0.1,2.5-0.1,3.7-0.2V67.4c-2.1,0.1-4.2,0.3-6,0.5
			C101.4,69.4,101.8,71,102.1,72.7z"/>
		<path d="M100.4,59.6c2.1-0.2,4.3-0.4,6.8-0.5v-7c-1.5,0.1-3,0.2-4.4,0.3C101.2,54.7,100.6,57,100.4,59.6z"/>
		<path d="M97.3,158.9c3.5,0.4,6.8,0.7,9.9,0.8v-13.6c-4.3,0-8-0.2-11.3-0.3C95.5,150.3,95.9,154.6,97.3,158.9z"/>
		<path d="M91.8,124.5c0-0.3,0.1-0.6,0.2-0.9h-2.9c-1.6,3.9-3.2,8.1-4.1,13c1.1,0.1,2.3,0.2,3.8,0.3
			C89.6,132.8,90.7,128.7,91.8,124.5z"/>
		<path d="M106.5,173.2c0.2,0.1,0.5,0.1,0.7,0.1v-5.2c-1.7-0.1-3.4-0.2-5.2-0.3C103.2,169.6,104.7,171.4,106.5,173.2z"
			/>
		<path d="M94.6,81.2c0.2,0,0.3,0,0.5,0c-0.4-2.4-0.9-4.6-1.3-6.8c-0.3-1.6-0.6-3.3-0.9-4.9c-0.5,0.1-0.9,0.2-1.4,0.3
			c0.4,2.6,1.1,4.9,1.9,7.4C93.8,78.4,94.2,79.8,94.6,81.2z"/>
		<path d="M87.5,145.3c-1.4-0.1-2.6-0.2-3.7-0.3c-0.1,1.2-0.1,2.5-0.1,3.8c0,2.9,0.3,5.6,0.8,8.1
			c1.3,0.2,2.6,0.5,3.7,0.7C87.4,153.5,87.2,149.4,87.5,145.3z"/>
		<path d="M130.9,59.7c0,0.5,0,0.9,0,1.3c0.1,0.1,0.2,0.1,0.3,0.1C131.1,60.7,131,60.2,130.9,59.7z"/>
		<path d="M94,115.2c0.6-2.6,1.2-5.3,1.6-8c-0.8,2.7-1.8,5.4-2.9,8H94z"/>
		<path d="M88,166.1c1,1.6,2.3,3,3.7,4.3c0.3,0.1,1.1,0.4,2.4,0.9c-1-1.6-1.8-3.1-2.6-4.6
			C90.4,166.5,89.2,166.3,88,166.1z"/>
		<path d="M92.1,59.8c-0.2,0.4-0.3,0.9-0.3,1.4c0.1-0.1,0.2-0.1,0.3-0.1C92.1,60.6,92.1,60.2,92.1,59.8z"/>
		<path d="M128.7,171.2c1.3-0.4,2.2-0.7,2.5-0.8c1.4-1.2,2.7-2.7,3.6-4.4c-1.2,0.2-2.3,0.4-3.5,0.6
			C130.6,168.2,129.7,169.7,128.7,171.2z"/>
		<path d="M130.2,115.2c-1.1-2.7-2.2-5.3-2.8-8c0.4,2.7,0.9,5.4,1.5,8H130.2z"/>
		<path d="M134.6,157.6c1.2-0.2,2.5-0.5,3.7-0.7c0.5-2.5,0.8-5.2,0.8-8.1c0-1.3,0-2.6-0.1-3.8c-1,0.1-2.3,0.2-3.7,0.3
			C135.6,149.4,135.5,153.5,134.6,157.6z"/>
		<path d="M111.5,185.1c-19.9-0.1-36-10.5-36.1-36.3c0-25,12.5-36.5,13.1-49.3
			c0.7-15.6-4.6-20.1-5.5-31c-1.5-16.8,10.1-30.7,28.5-30.7c18.3,0,29.9,13.8,28.5,30.7c-0.9,11-6.2,15.4-5.5,31
			c0.6,12.9,13.1,24.4,13.1,49.3C147.6,174.6,131.5,185.1,111.5,185.1z"/>
		<path d="M130.9,123.6c0,0.3,0.1,0.6,0.2,0.9c1.1,4.2,2.2,8.3,3,12.4c1.5-0.1,2.7-0.2,3.8-0.3c-1-4.9-2.5-9.1-4.1-13
			H130.9z"/>
		<path d="M115.6,146.1v13.6c3.1-0.1,6.4-0.4,9.9-0.8c1.5-4.3,1.8-8.6,1.4-13.1C123.6,145.9,119.9,146.1,115.6,146.1z"
			/>
		<path d="M120.8,72.8c0.3-1.7,0.6-3.3,0.9-4.8c-1.8-0.2-3.8-0.4-6-0.5v12.9c1.2,0.1,2.5,0.1,3.7,0.2
			C119.8,77.8,120.3,75.2,120.8,72.8z"/>
		<path d="M120.1,52.4c-1.4-0.1-2.9-0.2-4.4-0.3v7c2.5,0.1,4.7,0.3,6.8,0.5C122.4,56.9,121.7,54.6,120.1,52.4z"/>
		<path d="M115.7,105.9v9.3h4.6c-0.7-3-1.2-6.1-1.6-9.3H115.7z"/>
		<path d="M115.7,173.4c0.2-0.1,0.5-0.1,0.7-0.1c1.7-1.9,3.2-3.7,4.5-5.4c-1.8,0.1-3.5,0.2-5.2,0.3V173.4z"/>
		<path d="M115.7,123.6v14.2c3.7-0.1,7.1-0.2,10-0.3c-0.7-3.5-1.6-7-2.6-10.8c-0.3-1-0.5-2.1-0.8-3.1H115.7z"/>
		<path d="M118.3,88.9c-0.9,0-1.7-0.1-2.6-0.1h-0.1v8.7h2.4C118,94.5,118.1,91.6,118.3,88.9z"/>
		<path d="M129.4,77.2c0.8-2.5,1.5-4.8,1.9-7.4c-0.4-0.1-0.9-0.2-1.4-0.3c-0.2,1.6-0.6,3.2-0.9,4.9
			c-0.4,2.2-0.9,4.4-1.3,6.8c0.2,0,0.3,0,0.5,0C128.6,79.8,129,78.5,129.4,77.2z"/>
	</g>
	
</g>
</svg>
